<svg 
 xmlns="http://www.w3.org/2000/svg"
 xmlns:xlink="http://www.w3.org/1999/xlink"
 width="0.715in" height="0.715in">
<path fill-rule="evenodd"  stroke="rgb(255, 255, 255)" stroke-width="1px" stroke-linecap="butt" stroke-linejoin="miter" fill="rgb(29, 30, 35)"
 d="M25.499,0.500 C39.307,0.500 50.500,11.693 50.500,25.500 C50.500,39.307 39.307,50.500 25.499,50.500 C11.692,50.500 0.499,39.307 0.499,25.500 C0.499,11.693 11.692,0.500 25.499,0.500 Z"/>
<path fill-rule="evenodd"  fill="rgb(255, 255, 255)"
 d="M31.972,12.505 L28.614,12.500 C24.842,12.500 22.404,15.107 22.404,19.144 L22.404,22.208 L19.028,22.208 C18.736,22.208 18.499,22.455 18.499,22.759 L18.499,27.198 C18.499,27.502 18.736,27.748 19.028,27.748 L22.404,27.748 L22.404,38.950 C22.404,39.254 22.640,39.500 22.932,39.500 L27.337,39.500 C27.628,39.500 27.865,39.253 27.865,38.950 L27.865,27.748 L31.813,27.748 C32.104,27.748 32.341,27.502 32.341,27.198 L32.342,22.759 C32.342,22.613 32.286,22.473 32.187,22.370 C32.088,22.266 31.953,22.208 31.814,22.208 L27.865,22.208 L27.865,19.611 C27.865,18.363 28.150,17.729 29.710,17.729 L31.971,17.728 C32.263,17.728 32.499,17.481 32.499,17.178 L32.499,13.056 C32.499,12.752 32.263,12.506 31.972,12.505 Z"/>
</svg>