<svg 
 xmlns="http://www.w3.org/2000/svg"
 xmlns:xlink="http://www.w3.org/1999/xlink"
 width="1.667in" height="1.667in">
<path fill-rule="evenodd"  fill="rgb(255, 255, 255)"
 d="M92.734,47.005 C92.489,47.324 92.112,47.511 91.711,47.511 L89.139,47.511 L89.139,89.708 C89.139,90.421 88.562,91.000 87.851,91.000 L33.541,91.000 C32.830,91.000 32.252,90.421 32.252,89.708 L32.252,47.511 L28.287,47.511 C27.888,47.511 27.509,47.324 27.265,47.005 C27.021,46.686 26.939,46.272 27.043,45.884 L31.319,29.955 C31.470,29.392 31.980,29.000 32.563,29.000 L87.435,29.000 C88.018,29.000 88.528,29.392 88.680,29.955 L92.955,45.884 C93.060,46.272 92.978,46.686 92.734,47.005 ZM82.326,83.969 L82.326,88.417 L86.561,88.417 L86.561,47.511 L79.728,47.511 L83.147,50.531 C83.412,50.766 83.569,51.099 83.583,51.452 C83.596,51.805 83.464,52.149 83.216,52.402 L79.238,56.480 C78.987,56.739 78.652,56.870 78.316,56.870 C78.019,56.870 77.722,56.768 77.480,56.560 L76.642,55.844 L76.642,76.939 L77.872,76.939 C78.585,76.939 79.161,77.518 79.161,78.231 L79.161,82.678 L81.037,82.678 C81.749,82.678 82.326,83.257 82.326,83.969 ZM40.251,88.417 L79.747,88.417 L79.747,85.261 L40.251,85.261 L40.251,88.417 ZM55.112,65.817 L64.888,65.817 C65.599,65.817 66.176,66.395 66.176,67.108 L66.176,76.939 L74.064,76.939 L74.064,53.641 L60.000,41.620 L45.934,53.641 L45.934,76.939 L53.822,76.939 L53.822,67.108 C53.822,66.395 54.399,65.817 55.112,65.817 ZM56.400,68.399 L56.400,76.939 L63.598,76.939 L63.598,68.399 L56.400,68.399 ZM43.416,79.522 L43.416,82.678 L76.583,82.678 L76.583,79.522 L43.416,79.522 ZM34.830,88.417 L37.673,88.417 L37.673,83.969 C37.673,83.257 38.250,82.678 38.961,82.678 L40.837,82.678 L40.837,78.231 C40.837,77.518 41.415,76.939 42.127,76.939 L43.357,76.939 L43.357,55.844 L42.519,56.560 C42.002,57.001 41.234,56.967 40.760,56.480 L36.783,52.402 C36.535,52.149 36.403,51.805 36.417,51.452 C36.429,51.099 36.586,50.766 36.851,50.531 L40.270,47.511 L34.830,47.511 L34.830,88.417 ZM31.778,38.192 L29.969,44.928 L43.193,44.928 L50.817,38.192 L31.778,38.192 ZM33.552,31.582 L32.471,35.609 L53.740,35.609 L58.298,31.582 L33.552,31.582 ZM39.575,51.569 L41.762,53.813 L59.163,38.940 C59.403,38.735 59.701,38.632 60.000,38.632 C60.278,38.632 60.558,38.722 60.791,38.903 C60.805,38.915 60.821,38.928 60.837,38.940 L78.236,53.813 L80.425,51.569 L60.000,33.522 L39.575,51.569 ZM86.446,31.582 L61.700,31.582 L66.259,35.609 L77.497,35.609 C78.209,35.609 78.786,36.187 78.786,36.901 C78.786,37.614 78.209,38.192 77.497,38.192 L69.181,38.192 L76.805,44.928 L90.029,44.928 L86.446,31.582 ZM53.822,53.875 C53.822,50.463 56.593,47.687 60.000,47.687 C63.405,47.687 66.176,50.463 66.176,53.875 L66.176,60.102 C66.176,60.815 65.599,61.393 64.888,61.393 L55.112,61.393 C54.399,61.393 53.822,60.814 53.822,60.102 L53.822,53.875 ZM56.400,58.810 L63.598,58.810 L63.598,53.875 C63.598,51.887 61.984,50.270 60.000,50.270 C58.015,50.270 56.400,51.887 56.400,53.875 L56.400,58.810 Z"/>
</svg>