<svg 
 xmlns="http://www.w3.org/2000/svg"
 xmlns:xlink="http://www.w3.org/1999/xlink"
 width="1.111in" height="0.889in">
<path fill-rule="evenodd"  fill="rgb(29, 30, 35)"
 d="M78.433,63.216 L1.566,63.216 C0.704,63.216 0.004,62.517 0.004,61.655 L0.004,2.344 C0.004,1.483 0.704,0.784 1.566,0.784 L78.433,0.784 C79.295,0.784 79.994,1.483 79.994,2.344 L79.994,61.655 C79.994,62.517 79.295,63.216 78.433,63.216 ZM35.312,60.094 L44.686,60.094 L44.686,44.486 L35.312,44.486 L35.312,60.094 ZM3.128,50.729 L14.065,50.729 C14.927,50.729 15.627,51.428 15.627,52.290 C15.627,53.152 14.927,53.851 14.065,53.851 L3.128,53.851 L3.128,60.094 L32.188,60.094 L32.188,53.851 L26.563,53.851 C25.700,53.851 25.001,53.152 25.001,52.290 C25.001,51.428 25.700,50.729 26.563,50.729 L32.188,50.729 L32.188,44.486 L3.128,44.486 L3.128,50.729 ZM3.128,41.365 L12.346,41.365 C12.449,40.853 12.502,40.332 12.502,39.804 C12.502,35.500 8.998,32.000 4.691,32.000 C4.162,32.000 3.639,32.053 3.128,32.156 L3.128,41.365 ZM12.346,3.905 L3.128,3.905 L3.128,13.113 C3.639,13.216 4.162,13.270 4.691,13.270 C8.998,13.270 12.502,9.769 12.502,5.466 C12.502,4.937 12.449,4.416 12.346,3.905 ZM76.870,3.905 L67.652,3.905 C67.549,4.416 67.496,4.937 67.496,5.466 C67.496,9.769 71.000,13.270 75.307,13.270 C75.836,13.270 76.358,13.216 76.870,13.113 L76.870,3.905 ZM76.870,16.279 C76.354,16.353 75.833,16.392 75.307,16.392 C69.278,16.392 64.372,11.475 64.372,5.450 C64.372,4.925 64.410,4.404 64.484,3.889 L15.514,3.889 C15.588,4.404 15.627,4.940 15.627,5.466 C15.627,11.491 10.721,16.392 4.691,16.392 C4.164,16.392 3.644,16.353 3.128,16.279 L3.128,28.991 C3.644,28.917 4.164,28.878 4.691,28.878 C10.721,28.878 15.627,33.779 15.627,39.804 C15.627,40.329 15.588,40.850 15.514,41.365 L64.484,41.365 C64.410,40.850 64.372,40.329 64.372,39.804 C64.372,33.779 69.278,28.878 75.307,28.878 C75.833,28.878 76.354,28.917 76.870,28.991 L76.870,16.279 ZM76.870,32.156 C76.358,32.053 75.836,32.000 75.307,32.000 C71.000,32.000 67.496,35.500 67.496,39.804 C67.496,40.332 67.549,40.853 67.652,41.365 L76.870,41.365 L76.870,32.156 ZM76.870,44.486 L47.811,44.486 L47.811,50.729 L76.870,50.729 L76.870,44.486 ZM76.870,53.851 L47.811,53.851 L47.811,60.094 L76.870,60.094 L76.870,53.851 ZM69.059,24.196 L62.809,24.196 C61.945,24.196 61.246,23.497 61.246,22.635 C61.246,21.773 61.945,21.074 62.809,21.074 L69.059,21.074 C69.921,21.074 70.620,21.773 70.620,22.635 C70.620,23.497 69.921,24.196 69.059,24.196 ZM39.999,38.243 C31.437,38.243 24.376,31.321 24.376,22.635 C24.376,14.028 31.384,7.027 39.999,7.027 C48.613,7.027 55.622,14.028 55.622,22.635 C55.622,31.325 48.557,38.243 39.999,38.243 ZM39.999,35.121 C42.681,35.121 45.280,34.260 47.419,32.680 C46.380,29.524 43.395,27.318 39.999,27.318 C36.603,27.318 33.618,29.524 32.579,32.680 C34.718,34.260 37.317,35.121 39.999,35.121 ZM43.124,21.074 C43.124,19.353 41.721,17.952 39.999,17.952 C38.276,17.952 36.875,19.353 36.875,21.074 C36.875,22.795 38.276,24.196 39.999,24.196 C41.721,24.196 43.124,22.795 43.124,21.074 ZM39.999,10.149 C33.107,10.149 27.501,15.749 27.501,22.635 C27.501,25.454 28.452,28.159 30.166,30.341 C31.264,28.092 33.109,26.295 35.349,25.239 C34.355,24.133 33.750,22.673 33.750,21.074 C33.750,17.632 36.553,14.831 39.999,14.831 C43.444,14.831 46.249,17.632 46.249,21.074 C46.249,22.673 45.643,24.133 44.649,25.239 C46.889,26.295 48.732,28.092 49.832,30.341 C51.547,28.159 52.498,25.453 52.498,22.635 C52.498,15.749 46.891,10.149 39.999,10.149 ZM17.190,24.196 L10.940,24.196 C10.078,24.196 9.378,23.497 9.378,22.635 C9.378,21.773 10.078,21.074 10.940,21.074 L17.190,21.074 C18.052,21.074 18.751,21.773 18.751,22.635 C18.751,23.497 18.052,24.196 17.190,24.196 ZM20.314,53.851 C19.451,53.851 18.751,53.151 18.751,52.290 C18.751,51.428 19.451,50.729 20.314,50.729 C21.176,50.729 21.876,51.428 21.876,52.290 C21.876,53.151 21.176,53.851 20.314,53.851 Z"/>
</svg>