<svg 
 xmlns="http://www.w3.org/2000/svg"
 xmlns:xlink="http://www.w3.org/1999/xlink"
 width="1.667in" height="1.667in">
<path fill-rule="evenodd"  fill="rgb(255, 255, 255)"
 d="M83.697,59.234 C82.698,59.234 81.741,58.955 80.919,58.454 C80.254,60.606 78.232,62.176 75.847,62.176 C73.026,62.176 70.712,59.978 70.554,57.218 L41.475,57.218 C39.156,57.218 37.270,55.346 37.270,53.046 L37.270,45.656 L34.545,45.656 L34.545,59.473 L61.070,59.473 C63.425,59.473 65.342,61.374 65.342,63.711 L65.342,70.925 L66.946,70.925 C67.708,70.925 68.325,71.537 68.325,72.292 L68.325,90.683 C68.325,94.717 65.015,97.999 60.947,97.999 C56.879,97.999 53.570,94.717 53.570,90.683 L53.570,72.292 C53.570,71.537 54.186,70.925 54.948,70.925 L56.796,70.925 L56.796,67.949 L30.272,67.949 C27.916,67.949 26.000,66.048 26.000,63.711 L26.000,41.418 C26.000,39.081 27.916,37.179 30.272,37.179 L37.270,37.179 L37.270,32.172 C37.270,29.871 39.156,28.000 41.475,28.000 L84.793,28.000 C87.112,28.000 88.999,29.871 88.999,32.172 L88.999,53.974 C88.999,56.875 86.621,59.234 83.697,59.234 ZM56.326,90.683 C56.326,93.210 58.399,95.266 60.947,95.266 C63.495,95.266 65.568,93.210 65.568,90.683 L65.568,79.952 L56.326,79.952 L56.326,90.683 ZM56.326,73.660 L56.326,77.217 L65.568,77.217 L65.568,73.660 L56.326,73.660 ZM37.270,39.914 L30.272,39.914 C29.436,39.914 28.756,40.589 28.756,41.418 L28.756,63.711 C28.756,64.540 29.436,65.215 30.272,65.215 L58.175,65.215 C58.936,65.215 59.553,65.827 59.553,66.582 L59.553,70.925 L62.585,70.925 L62.585,63.711 C62.585,62.882 61.905,62.207 61.070,62.207 L33.167,62.207 C32.405,62.207 31.789,61.595 31.789,60.840 L31.789,44.289 C31.789,43.534 32.405,42.922 33.167,42.922 L37.270,42.922 L37.270,39.914 ZM62.697,44.797 L62.697,30.734 L41.475,30.734 C40.676,30.734 40.027,31.379 40.027,32.172 L40.027,53.046 C40.027,53.839 40.676,54.484 41.475,54.484 L70.545,54.484 L70.545,49.409 C69.789,49.822 68.921,50.056 67.999,50.056 C65.076,50.056 62.697,47.697 62.697,44.797 ZM86.242,32.172 C86.242,31.379 85.592,30.734 84.793,30.734 L65.454,30.734 L65.454,44.797 C65.454,46.189 66.596,47.322 67.999,47.322 C69.403,47.322 70.545,46.189 70.545,44.797 C70.545,44.042 71.162,43.430 71.923,43.430 C72.684,43.430 73.302,44.042 73.302,44.797 L73.302,56.916 C73.302,58.308 74.443,59.441 75.847,59.441 C77.251,59.441 78.393,58.308 78.393,56.916 L78.393,53.975 C78.393,53.961 78.394,53.947 78.394,53.933 L78.394,43.217 C78.394,42.462 79.012,41.850 79.772,41.850 C80.534,41.850 81.151,42.462 81.151,43.217 L81.151,54.030 C81.160,54.437 81.268,54.837 81.464,55.188 C81.914,55.997 82.769,56.500 83.697,56.500 C85.100,56.500 86.242,55.367 86.242,53.974 L86.242,32.172 ZM81.045,37.580 C81.010,37.664 80.969,37.744 80.918,37.817 C80.868,37.893 80.810,37.962 80.748,38.025 C80.684,38.088 80.613,38.146 80.538,38.195 C80.463,38.244 80.384,38.286 80.300,38.320 C80.216,38.354 80.130,38.382 80.041,38.398 C79.953,38.416 79.862,38.426 79.772,38.426 C79.683,38.426 79.592,38.416 79.504,38.398 C79.415,38.382 79.329,38.354 79.247,38.320 C79.162,38.286 79.082,38.244 79.007,38.195 C78.932,38.146 78.861,38.088 78.798,38.025 C78.734,37.962 78.676,37.893 78.628,37.817 C78.577,37.744 78.534,37.664 78.501,37.580 C78.466,37.499 78.438,37.413 78.422,37.325 C78.404,37.238 78.394,37.147 78.394,37.059 C78.394,36.970 78.404,36.879 78.422,36.791 C78.438,36.705 78.466,36.618 78.501,36.535 C78.534,36.453 78.577,36.374 78.628,36.300 C78.676,36.225 78.734,36.155 78.798,36.093 C78.861,36.029 78.932,35.972 79.007,35.921 C79.082,35.872 79.162,35.831 79.247,35.797 C79.329,35.763 79.415,35.735 79.504,35.719 C79.681,35.683 79.865,35.683 80.041,35.719 C80.130,35.735 80.216,35.763 80.300,35.797 C80.384,35.831 80.463,35.872 80.538,35.921 C80.613,35.972 80.684,36.029 80.748,36.093 C80.810,36.155 80.868,36.225 80.918,36.300 C80.969,36.374 81.010,36.453 81.045,36.535 C81.079,36.618 81.107,36.705 81.125,36.791 C81.143,36.879 81.151,36.970 81.151,37.059 C81.151,37.147 81.142,37.238 81.125,37.325 C81.107,37.413 81.079,37.499 81.045,37.580 Z"/>
</svg>