<svg 
 xmlns="http://www.w3.org/2000/svg"
 xmlns:xlink="http://www.w3.org/1999/xlink"
 width="1.111in" height="1.361in">
<path fill-rule="evenodd"  fill="rgb(29, 30, 35)"
 d="M71.204,32.716 C76.888,39.803 80.000,48.631 80.000,57.770 C80.000,79.847 62.055,97.810 39.999,97.810 C17.943,97.810 -0.002,79.847 -0.002,57.770 C-0.002,48.631 3.110,39.803 8.794,32.716 L4.694,28.612 C2.466,26.381 2.466,22.753 4.694,20.523 C6.922,18.293 10.546,18.293 12.774,20.523 L17.152,24.905 C21.718,21.722 26.927,19.517 32.380,18.460 L32.380,12.773 L28.570,12.773 C27.519,12.773 26.666,11.919 26.666,10.867 L26.666,5.909 C26.666,2.755 29.228,0.189 32.380,0.189 L47.619,0.189 C50.769,0.189 53.333,2.755 53.333,5.909 L53.333,10.867 C53.333,11.919 52.480,12.773 51.429,12.773 L47.619,12.773 L47.619,18.460 C53.073,19.518 58.279,21.722 62.847,24.905 L67.225,20.523 C69.452,18.293 73.077,18.293 75.305,20.523 C77.533,22.754 77.533,26.382 75.305,28.612 L71.204,32.716 ZM10.081,23.220 C9.337,22.476 8.129,22.477 7.387,23.220 C6.645,23.962 6.645,25.172 7.387,25.916 L11.323,29.855 C12.210,28.943 13.140,28.074 14.107,27.251 L10.081,23.220 ZM49.523,8.960 L49.523,5.909 C49.523,4.857 48.668,4.002 47.619,4.002 L32.380,4.002 C31.329,4.002 30.475,4.857 30.475,5.909 L30.475,8.960 L49.523,8.960 ZM36.189,12.773 L36.189,17.910 C38.715,17.674 41.284,17.674 43.809,17.910 L43.809,12.773 L36.189,12.773 ZM61.892,28.920 C57.083,25.256 51.390,22.846 45.429,21.947 C43.647,21.680 41.820,21.544 39.999,21.544 C38.178,21.544 36.351,21.680 34.568,21.947 C28.607,22.846 22.916,25.256 18.107,28.920 C16.188,30.381 14.405,32.043 12.805,33.862 C7.004,40.469 3.809,48.958 3.809,57.770 C3.809,77.745 20.043,93.996 39.999,93.996 C59.955,93.996 76.190,77.745 76.190,57.770 C76.190,48.958 72.995,40.469 67.192,33.862 C65.594,32.043 63.810,30.381 61.892,28.920 ZM72.612,23.220 C71.868,22.477 70.662,22.476 69.918,23.220 L65.890,27.251 C66.858,28.074 67.788,28.943 68.675,29.855 L72.612,25.916 C73.353,25.172 73.353,23.962 72.612,23.220 ZM60.289,77.887 C60.259,77.920 60.231,77.956 60.198,77.987 C60.164,78.021 60.130,78.050 60.095,78.081 C54.704,83.427 47.574,86.370 39.999,86.370 C32.424,86.370 25.294,83.426 19.902,78.080 C19.868,78.050 19.833,78.021 19.801,77.987 C19.767,77.954 19.738,77.920 19.707,77.885 C14.367,72.489 11.428,65.352 11.428,57.770 C11.428,50.187 14.367,43.049 19.710,37.652 C19.739,37.618 19.768,37.584 19.801,37.551 C19.837,37.515 19.876,37.480 19.915,37.447 C23.272,34.123 27.418,31.664 31.918,30.335 C32.928,30.038 33.986,30.613 34.284,31.624 C34.582,32.634 34.006,33.694 32.996,33.992 C29.661,34.978 26.551,36.681 23.899,38.957 L25.184,40.243 C25.927,40.988 25.927,42.196 25.184,42.940 C24.812,43.313 24.325,43.499 23.836,43.499 C23.350,43.499 22.862,43.313 22.489,42.940 L21.202,41.651 C17.755,45.663 15.708,50.601 15.309,55.863 L17.142,55.863 C18.193,55.863 19.047,56.716 19.047,57.770 C19.047,58.823 18.193,59.677 17.142,59.677 L15.309,59.677 C15.708,64.939 17.755,69.876 21.202,73.888 L22.489,72.599 C23.234,71.855 24.440,71.855 25.184,72.599 C25.928,73.343 25.928,74.551 25.184,75.296 L23.896,76.585 C27.903,80.035 32.837,82.083 38.095,82.483 L38.095,80.650 C38.095,79.596 38.947,78.743 39.999,78.743 C41.051,78.743 41.904,79.596 41.904,80.650 L41.904,82.484 C47.162,82.083 52.095,80.035 56.102,76.585 L54.815,75.296 C54.071,74.551 54.071,73.343 54.815,72.599 C55.558,71.855 56.764,71.855 57.507,72.599 L58.796,73.888 C62.243,69.876 64.290,64.939 64.688,59.677 L62.857,59.677 C61.805,59.677 60.952,58.823 60.952,57.770 C60.952,56.717 61.805,55.863 62.857,55.863 L64.688,55.863 C64.290,50.601 62.243,45.663 58.796,41.651 L57.507,42.940 C57.136,43.313 56.649,43.499 56.162,43.499 C55.674,43.499 55.186,43.313 54.815,42.940 C54.071,42.196 54.071,40.988 54.815,40.243 L56.099,38.957 C53.447,36.681 50.337,34.978 47.001,33.992 C45.992,33.694 45.417,32.634 45.715,31.624 C46.013,30.613 47.071,30.037 48.081,30.335 C52.581,31.665 56.729,34.125 60.086,37.450 C60.123,37.482 60.161,37.515 60.198,37.552 C60.231,37.584 60.261,37.620 60.290,37.654 C65.630,43.050 68.571,50.188 68.571,57.770 C68.571,65.352 65.630,72.491 60.289,77.887 ZM39.999,63.490 C36.848,63.490 34.285,60.924 34.285,57.770 C34.285,55.284 35.877,53.164 38.095,52.378 L38.095,38.704 C38.095,37.650 38.947,36.797 39.999,36.797 C41.051,36.797 41.904,37.650 41.904,38.704 L41.904,52.378 C44.122,53.164 45.714,55.284 45.714,57.770 C45.714,60.924 43.150,63.490 39.999,63.490 ZM39.999,55.863 C38.948,55.863 38.095,56.718 38.095,57.770 C38.095,58.821 38.948,59.677 39.999,59.677 C41.049,59.677 41.904,58.821 41.904,57.770 C41.904,56.718 41.049,55.863 39.999,55.863 ZM39.999,32.984 C38.947,32.984 38.095,32.129 38.095,31.077 C38.095,30.024 38.947,29.170 39.999,29.170 C41.050,29.170 41.904,30.024 41.904,31.077 C41.904,32.129 41.050,32.984 39.999,32.984 Z"/>
</svg>