<svg xmlns="http://www.w3.org/2000/svg" width="80" height="80" viewBox="0 0 80 80">
  <defs>
    <style>
      .cls-1 {
        fill: #1d1e23;
        fill-rule: evenodd;
      }
    </style>
  </defs>
  <path id="Forma_1" data-name="Forma 1" class="cls-1" d="M7028.23,2853.61a1.582,1.582,0,0,0-2.21,0,1.592,1.592,0,0,0-.46,1.11,1.565,1.565,0,0,0,3.13,0A1.592,1.592,0,0,0,7028.23,2853.61Zm17.96-35.61a7.366,7.366,0,0,0-7.36,7.36v2a7.36,7.36,0,0,0,14.72,0v-2A7.373,7.373,0,0,0,7046.19,2818Zm4.23,9.36a4.235,4.235,0,0,1-8.47,0v-2a4.235,4.235,0,1,1,8.47,0v2h0Zm21.39-9.36a7.366,7.366,0,0,0-7.36,7.36v2a7.36,7.36,0,0,0,14.72,0v-2A7.366,7.366,0,0,0,7071.81,2818Zm4.23,9.36a4.23,4.23,0,1,1-8.46,0v-2a4.23,4.23,0,1,1,8.46,0v2Zm14.58,17.66a7.281,7.281,0,0,0,1.36-4.26v-2a7.36,7.36,0,1,0-14.72,0v2a7.289,7.289,0,0,0,1.37,4.26,7.863,7.863,0,0,1-13.64,0,7.289,7.289,0,0,0,1.37-4.26v-2a7.36,7.36,0,0,0-14.72,0v2a7.289,7.289,0,0,0,1.37,4.26,7.863,7.863,0,0,1-13.64,0,7.281,7.281,0,0,0,1.36-4.26v-2a7.355,7.355,0,1,0-14.71,0v2a7.281,7.281,0,0,0,1.36,4.26,9.075,9.075,0,0,0-8.38,9.04v10.92a8.141,8.141,0,0,0,6.56,7.97v23.49a1.562,1.562,0,0,0,1.56,1.56h12.5a1.564,1.564,0,0,0,1.57-1.56v-23.49a5.513,5.513,0,0,1,10,0v23.49a1.562,1.562,0,0,0,1.56,1.56h12.5a1.562,1.562,0,0,0,1.56-1.56v-23.49a5.513,5.513,0,0,1,10,0v23.49a1.562,1.562,0,0,0,1.56,1.56h12.5a1.564,1.564,0,0,0,1.57-1.56v-7.97a1.565,1.565,0,0,0-3.13,0v6.4h-3.12v-18.9a1.565,1.565,0,0,0-3.13,0v18.9h-3.12v-25.2h9.37v6.3a1.565,1.565,0,0,0,3.13,0v-3.02a8.141,8.141,0,0,0,6.56-7.97v-10.92A9.075,9.075,0,0,0,7090.62,2845.02Zm-61.48-6.26a4.235,4.235,0,0,1,8.47,0v2a4.235,4.235,0,0,1-8.47,0v-2Zm8.92,56.11h-3.12v-18.9a1.565,1.565,0,0,0-3.13,0v18.9h-3.12v-25.2h9.37v25.2Zm6.56-29.89a4.989,4.989,0,0,1-3.43,4.74v-15a1.565,1.565,0,0,0-3.13,0v11.83h-9.37v-6.21a1.565,1.565,0,0,0-3.13,0v9.38a5,5,0,0,1-3.44-4.74v-10.92a5.947,5.947,0,0,1,5.94-5.94h10.63a5.939,5.939,0,0,1,5.93,5.94v10.92Zm10.15-26.22a4.23,4.23,0,0,1,8.46,0v2a4.23,4.23,0,0,1-8.46,0v-2h0Zm8.92,56.11h-3.13v-18.9a1.56,1.56,0,0,0-3.12,0v18.9h-3.13v-25.2h9.38v25.2Zm6.56-29.89a4.985,4.985,0,0,1-3.44,4.74v-15a1.56,1.56,0,0,0-3.12,0v11.83h-9.38v-11.83a1.56,1.56,0,0,0-3.12,0v15a4.985,4.985,0,0,1-3.44-4.74v-10.92a5.941,5.941,0,0,1,5.94-5.94h10.62a5.941,5.941,0,0,1,5.94,5.94v10.92Zm10.14-26.22a4.235,4.235,0,0,1,8.47,0v2a4.235,4.235,0,0,1-8.47,0v-2Zm15.48,26.22a4.989,4.989,0,0,1-3.43,4.74v-15a1.565,1.565,0,0,0-3.13,0v11.83h-9.37v-11.83a1.565,1.565,0,0,0-3.13,0v15a5,5,0,0,1-3.44-4.74v-10.92a5.947,5.947,0,0,1,5.94-5.94h10.63a5.939,5.939,0,0,1,5.93,5.94v10.92Zm-3.89,16.19a1.565,1.565,0,1,0,0,2.21,1.592,1.592,0,0,0,.46-1.11A1.569,1.569,0,0,0,7091.98,2881.17Z" transform="translate(-7019 -2818)"/>
</svg>
