<svg 
 xmlns="http://www.w3.org/2000/svg"
 xmlns:xlink="http://www.w3.org/1999/xlink"
 width="1.667in" height="1.667in">
<path fill-rule="evenodd"  fill="rgb(255, 255, 255)"
 d="M93.603,85.497 L26.395,85.497 C25.641,85.497 25.030,84.885 25.030,84.130 L25.030,36.869 C25.030,36.113 25.641,35.502 26.395,35.502 L76.801,35.502 C77.556,35.502 78.167,36.113 78.167,36.869 L78.167,47.317 L93.603,47.317 C94.357,47.317 94.969,47.929 94.969,48.684 L94.969,84.130 C94.969,84.885 94.357,85.497 93.603,85.497 ZM27.761,76.855 L47.158,76.855 C47.912,76.855 48.524,77.467 48.524,78.222 C48.524,78.978 47.912,79.589 47.158,79.589 L27.761,79.589 L27.761,82.764 L58.633,82.764 L58.633,73.681 L27.761,73.681 L27.761,76.855 ZM75.435,70.948 L75.435,61.866 L44.563,61.866 L44.563,70.948 L75.435,70.948 ZM27.761,70.948 L41.832,70.948 L41.832,61.866 L27.761,61.866 L27.761,70.948 ZM27.761,59.132 L58.633,59.132 L58.633,50.051 L27.761,50.051 L27.761,59.132 ZM41.832,38.235 L27.761,38.235 L27.761,47.317 L41.832,47.317 L41.832,38.235 ZM75.435,38.235 L44.563,38.235 L44.563,47.317 L75.435,47.317 L75.435,38.235 ZM92.237,50.051 L61.365,50.051 L61.365,53.363 L80.821,53.363 C81.574,53.363 82.187,53.975 82.187,54.730 C82.187,55.485 81.574,56.097 80.821,56.097 L61.365,56.097 L61.365,59.132 L92.237,59.132 L92.237,50.051 ZM92.237,61.866 L78.167,61.866 L78.167,70.948 L92.237,70.948 L92.237,61.866 ZM92.237,73.681 L61.365,73.681 L61.365,82.764 L92.237,82.764 L92.237,73.681 ZM85.433,54.207 C85.467,54.125 85.510,54.046 85.558,53.972 C85.608,53.897 85.665,53.827 85.728,53.764 C85.791,53.701 85.861,53.644 85.936,53.594 C86.011,53.546 86.090,53.503 86.173,53.468 C86.254,53.435 86.339,53.407 86.427,53.391 C86.604,53.355 86.785,53.355 86.961,53.391 C87.049,53.407 87.134,53.435 87.217,53.468 C87.299,53.503 87.378,53.545 87.451,53.594 C87.526,53.644 87.596,53.701 87.660,53.764 C87.724,53.827 87.780,53.897 87.831,53.972 C87.879,54.046 87.922,54.125 87.956,54.207 C87.990,54.290 88.016,54.376 88.034,54.462 C88.051,54.551 88.060,54.642 88.060,54.730 C88.060,54.819 88.051,54.909 88.034,54.997 C88.016,55.084 87.990,55.170 87.956,55.252 C87.922,55.336 87.879,55.415 87.831,55.489 C87.780,55.564 87.724,55.634 87.660,55.697 C87.596,55.760 87.526,55.817 87.451,55.866 C87.378,55.915 87.299,55.958 87.217,55.992 C87.134,56.026 87.049,56.052 86.961,56.070 C86.873,56.087 86.783,56.097 86.694,56.097 C86.605,56.097 86.514,56.087 86.427,56.070 C86.339,56.052 86.254,56.026 86.173,55.992 C86.090,55.958 86.011,55.915 85.936,55.866 C85.861,55.817 85.791,55.760 85.728,55.697 C85.665,55.634 85.608,55.564 85.558,55.489 C85.510,55.415 85.467,55.336 85.433,55.252 C85.399,55.170 85.373,55.084 85.355,54.997 C85.338,54.909 85.329,54.819 85.329,54.730 C85.329,54.642 85.338,54.551 85.355,54.462 C85.373,54.376 85.399,54.290 85.433,54.207 ZM54.293,78.745 C54.259,78.827 54.217,78.907 54.167,78.980 C54.119,79.056 54.062,79.126 53.999,79.190 C53.936,79.253 53.865,79.309 53.791,79.359 C53.717,79.408 53.638,79.451 53.555,79.485 C53.472,79.519 53.387,79.545 53.299,79.563 C53.211,79.581 53.121,79.589 53.033,79.589 C52.944,79.589 52.853,79.581 52.765,79.563 C52.679,79.545 52.593,79.519 52.510,79.485 C52.427,79.451 52.348,79.408 52.274,79.359 C52.199,79.309 52.129,79.253 52.067,79.190 C52.002,79.126 51.947,79.056 51.896,78.980 C51.847,78.907 51.805,78.827 51.771,78.745 C51.736,78.662 51.710,78.576 51.692,78.490 C51.674,78.401 51.667,78.312 51.667,78.221 C51.667,78.133 51.676,78.043 51.692,77.955 C51.710,77.868 51.736,77.782 51.771,77.699 C51.805,77.618 51.847,77.537 51.896,77.464 C51.947,77.390 52.002,77.318 52.067,77.255 C52.129,77.192 52.199,77.135 52.274,77.086 C52.348,77.037 52.427,76.995 52.510,76.961 C52.593,76.927 52.679,76.900 52.765,76.883 C52.941,76.847 53.123,76.847 53.299,76.883 C53.387,76.900 53.472,76.927 53.555,76.961 C53.638,76.995 53.717,77.037 53.791,77.086 C53.865,77.135 53.936,77.193 53.999,77.255 C54.062,77.318 54.119,77.388 54.167,77.464 C54.217,77.537 54.259,77.618 54.293,77.699 C54.328,77.782 54.354,77.868 54.372,77.955 C54.389,78.043 54.399,78.133 54.399,78.221 C54.399,78.312 54.389,78.401 54.372,78.490 C54.354,78.576 54.328,78.662 54.293,78.745 Z"/>
</svg>