<svg 
 xmlns="http://www.w3.org/2000/svg"
 xmlns:xlink="http://www.w3.org/1999/xlink"
 width="1.667in" height="1.667in">
<path fill-rule="evenodd"  fill="rgb(255, 255, 255)"
 d="M81.454,47.062 L81.454,57.680 L85.141,57.680 C87.687,57.680 89.757,59.751 89.757,62.297 C89.757,63.613 89.203,64.803 88.318,65.645 C89.203,66.487 89.757,67.676 89.757,68.992 C89.757,70.309 89.203,71.498 88.318,72.340 C89.203,73.182 89.757,74.371 89.757,75.687 C89.757,77.003 89.203,78.193 88.318,79.034 C89.203,79.876 89.757,81.065 89.757,82.382 C89.757,84.928 87.687,86.999 85.142,86.999 L73.224,86.999 C71.823,86.999 70.567,86.372 69.720,85.385 L59.507,85.385 C57.664,85.385 56.153,84.431 55.251,82.700 C55.003,82.221 54.623,81.848 54.175,81.616 C53.956,81.997 53.545,82.253 53.074,82.253 L48.788,82.253 C48.751,82.922 48.198,83.452 47.520,83.452 L26.269,83.452 C25.568,83.452 24.999,82.884 24.999,82.182 L24.999,62.602 C24.999,61.900 25.568,61.331 26.269,61.331 L47.521,61.331 C48.198,61.331 48.751,61.863 48.788,62.531 L53.074,62.531 C53.464,62.531 53.813,62.707 54.046,62.983 C54.305,62.945 54.601,62.877 54.901,62.761 C55.932,62.362 56.560,61.571 56.818,60.345 L57.860,49.199 C57.861,49.194 57.861,49.187 57.862,49.180 C58.155,46.480 60.423,44.444 63.139,44.444 C64.558,44.444 65.890,44.995 66.892,45.998 C67.894,47.001 68.447,48.333 68.447,49.752 L68.446,57.680 L70.817,57.680 L70.817,47.062 C65.669,44.927 62.271,39.889 62.271,34.250 C62.271,31.113 63.350,28.037 65.307,25.591 C66.403,24.221 67.726,23.086 69.240,22.216 C69.793,21.897 70.461,21.887 70.982,22.189 C71.506,22.493 71.807,23.054 71.807,23.728 C71.807,23.789 71.832,30.283 71.832,32.634 C71.832,33.004 72.038,33.215 72.102,33.271 C72.144,33.296 72.138,33.296 72.188,33.338 C73.601,34.520 75.417,35.870 76.130,36.209 C76.834,35.869 78.622,34.542 80.015,33.382 C80.054,33.349 80.066,33.338 80.108,33.311 C80.244,33.208 80.437,32.985 80.437,32.853 C80.437,30.595 80.463,23.789 80.463,23.721 C80.463,23.079 80.775,22.512 81.299,22.209 C81.817,21.907 82.489,21.905 83.009,22.203 C84.531,23.074 85.861,24.213 86.963,25.590 C88.921,28.037 90.000,31.112 90.000,34.250 C90.000,39.889 86.601,44.927 81.454,47.062 ZM46.250,73.607 L35.929,73.607 C35.228,73.607 34.660,73.038 34.660,72.337 C34.660,71.635 35.228,71.067 35.929,71.067 L46.250,71.067 L46.250,63.871 L27.538,63.871 L27.538,80.912 L46.250,80.912 L46.250,73.607 ZM51.804,65.071 L48.789,65.071 L48.789,79.712 L51.804,79.712 L51.804,65.071 ZM70.048,72.340 C69.161,71.498 68.609,70.309 68.609,68.992 C68.609,67.676 69.161,66.487 70.048,65.645 C69.161,64.803 68.607,63.613 68.607,62.297 C68.607,61.551 68.786,60.844 69.103,60.220 L67.176,60.220 C66.840,60.220 66.517,60.086 66.279,59.848 C66.040,59.609 65.907,59.286 65.907,58.949 L65.908,49.751 C65.908,49.012 65.620,48.317 65.097,47.795 C64.574,47.272 63.879,46.984 63.140,46.984 C61.725,46.984 60.544,48.042 60.387,49.446 L59.340,60.650 C59.336,60.694 59.330,60.737 59.321,60.780 C58.663,64.084 56.244,65.259 54.343,65.520 L54.343,70.741 L55.139,70.741 C58.156,70.741 60.739,68.586 61.280,65.617 C61.406,64.926 62.067,64.469 62.757,64.595 C63.446,64.721 63.904,65.382 63.778,66.072 C63.016,70.250 59.383,73.281 55.139,73.281 L54.343,73.281 L54.343,78.975 C55.680,79.328 56.833,80.240 57.504,81.526 C57.972,82.425 58.609,82.844 59.508,82.844 L68.631,82.844 C68.615,82.692 68.607,82.538 68.607,82.382 C68.607,81.065 69.161,79.876 70.048,79.034 C69.161,78.192 68.609,77.003 68.609,75.687 C68.609,74.371 69.161,73.182 70.048,72.340 ZM73.225,80.305 L73.224,80.305 C72.079,80.305 71.146,81.236 71.146,82.382 C71.146,83.528 72.079,84.459 73.224,84.459 L85.142,84.459 C86.287,84.459 87.218,83.528 87.218,82.382 C87.218,81.236 86.287,80.305 85.142,80.305 L78.035,80.305 C77.334,80.305 76.766,79.736 76.766,79.034 C76.766,78.333 77.334,77.765 78.035,77.765 L85.141,77.765 C86.287,77.765 87.218,76.833 87.218,75.687 C87.218,74.542 86.287,73.610 85.141,73.610 L73.225,73.610 C72.079,73.610 71.146,74.542 71.146,75.687 C71.146,76.832 72.079,77.765 73.225,77.765 C73.925,77.765 74.494,78.333 74.494,79.034 C74.494,79.736 73.925,80.305 73.225,80.305 ZM80.464,66.914 L73.225,66.914 C72.079,66.914 71.146,67.846 71.146,68.992 C71.146,70.137 72.079,71.069 73.225,71.069 L85.141,71.069 C86.287,71.069 87.218,70.137 87.218,68.992 C87.218,67.846 86.287,66.914 85.141,66.914 C84.440,66.914 83.872,66.346 83.872,65.644 C83.872,64.943 84.440,64.374 85.141,64.374 C86.287,64.374 87.218,63.443 87.218,62.297 C87.218,61.152 86.287,60.220 85.141,60.220 L73.225,60.220 C72.079,60.220 71.146,61.152 71.146,62.297 C71.146,63.443 72.079,64.374 73.225,64.374 L80.464,64.374 C81.165,64.374 81.734,64.943 81.734,65.644 C81.734,66.346 81.165,66.914 80.464,66.914 ZM84.980,27.177 C84.395,26.446 83.731,25.796 82.996,25.236 C82.988,27.390 82.976,31.259 82.976,32.853 C82.976,34.254 81.907,35.141 81.604,35.364 C77.472,38.798 76.502,38.798 76.136,38.798 C75.759,38.798 74.762,38.798 70.588,35.311 C70.285,35.081 69.292,34.208 69.292,32.634 C69.292,30.991 69.280,27.314 69.274,25.236 C68.539,25.797 67.874,26.447 67.289,27.178 C65.667,29.205 64.810,31.651 64.810,34.250 C64.810,39.109 67.897,43.422 72.495,44.982 C73.010,45.156 73.356,45.640 73.356,46.184 L73.356,57.680 L78.915,57.680 L78.915,46.184 C78.915,45.640 79.261,45.156 79.777,44.982 C84.373,43.422 87.460,39.109 87.460,34.250 C87.460,31.650 86.603,29.204 84.980,27.177 ZM30.527,71.281 C30.595,71.235 30.670,71.196 30.747,71.164 C30.823,71.132 30.903,71.108 30.984,71.092 C31.148,71.059 31.316,71.059 31.480,71.092 C31.561,71.108 31.641,71.132 31.717,71.164 C31.794,71.196 31.867,71.235 31.937,71.281 C32.005,71.328 32.070,71.380 32.129,71.439 C32.187,71.497 32.241,71.563 32.288,71.632 C32.333,71.700 32.372,71.775 32.404,71.851 C32.436,71.927 32.460,72.007 32.477,72.089 C32.494,72.170 32.502,72.254 32.502,72.337 C32.502,72.420 32.494,72.503 32.477,72.585 C32.460,72.666 32.436,72.747 32.404,72.823 C32.372,72.899 32.333,72.973 32.288,73.042 C32.241,73.111 32.188,73.176 32.129,73.235 C32.070,73.294 32.005,73.347 31.937,73.393 C31.867,73.439 31.794,73.478 31.717,73.510 C31.641,73.542 31.561,73.566 31.480,73.582 C31.397,73.599 31.315,73.606 31.231,73.606 C31.149,73.606 31.066,73.599 30.984,73.582 C30.903,73.565 30.823,73.542 30.747,73.510 C30.670,73.478 30.596,73.439 30.527,73.393 C30.458,73.347 30.392,73.294 30.333,73.235 C30.275,73.176 30.222,73.111 30.176,73.042 C30.131,72.973 30.091,72.899 30.059,72.823 C30.028,72.746 30.004,72.666 29.987,72.585 C29.971,72.503 29.962,72.420 29.962,72.337 C29.962,72.002 30.097,71.675 30.333,71.439 C30.392,71.380 30.458,71.328 30.527,71.281 Z"/>
</svg>