<svg 
 xmlns="http://www.w3.org/2000/svg"
 xmlns:xlink="http://www.w3.org/1999/xlink"
 width="1.667in" height="1.667in">
<path fill-rule="evenodd"  fill="rgb(255, 255, 255)"
 d="M52.316,74.819 C52.696,74.819 53.068,74.975 53.334,75.246 C53.605,75.519 53.758,75.893 53.758,76.276 C53.758,76.660 53.605,77.037 53.334,77.307 C53.068,77.580 52.696,77.733 52.316,77.733 C51.941,77.733 51.569,77.580 51.302,77.307 C51.032,77.037 50.877,76.660 50.877,76.276 C50.877,75.893 51.032,75.519 51.302,75.246 C51.569,74.975 51.941,74.819 52.316,74.819 ZM78.801,45.106 C78.517,45.842 78.022,46.506 77.334,46.982 L65.275,55.373 L65.275,60.260 C66.362,59.549 67.616,59.176 68.914,59.176 C72.621,59.176 75.638,62.228 75.638,65.985 L75.638,72.008 L75.638,73.856 L75.638,74.521 C75.638,76.941 73.933,77.683 73.811,77.737 L73.803,77.741 L73.799,77.741 L69.016,79.674 L69.012,79.677 C65.875,80.946 65.850,77.762 65.850,77.662 L65.850,71.923 L60.736,75.022 C60.695,75.046 60.666,75.093 60.666,75.143 L60.666,89.543 C60.666,90.345 60.024,91.000 59.227,91.000 L52.316,91.000 C51.523,91.000 50.877,90.345 50.877,89.543 L50.877,81.966 C50.877,81.159 51.523,80.509 52.316,80.509 C53.113,80.509 53.758,81.159 53.758,81.966 L53.758,88.085 L57.788,88.085 L57.788,75.143 C57.788,74.073 58.350,73.071 59.255,72.520 L66.552,68.103 C66.995,67.833 67.549,67.825 67.998,68.085 C68.451,68.344 68.728,68.827 68.728,69.354 L68.728,76.649 L72.761,75.018 L72.761,65.985 C72.761,63.838 71.033,62.090 68.914,62.090 C68.142,62.090 67.395,62.321 66.752,62.761 L60.245,67.235 C60.014,67.395 59.736,67.488 59.434,67.488 L53.758,67.488 L53.758,70.157 C53.758,70.960 53.113,71.614 52.316,71.614 C51.523,71.614 50.877,70.960 50.877,70.157 L50.877,62.964 C48.045,62.964 48.000,60.277 48.000,60.192 L48.000,27.000 L50.877,27.000 L50.877,52.768 C50.877,50.070 52.488,47.633 54.923,46.591 C52.769,45.440 51.295,43.151 51.295,40.518 L51.295,39.583 C51.295,35.798 54.338,32.721 58.076,32.721 C61.813,32.721 64.857,35.798 64.857,39.583 L64.857,40.518 C64.857,41.463 64.667,42.362 64.323,43.183 L70.851,40.825 L69.150,36.328 L66.446,37.376 C65.443,34.714 67.956,33.670 68.114,33.609 L68.117,33.606 L68.120,33.606 L73.512,31.516 L74.540,34.239 L71.839,35.286 L73.562,39.845 L73.705,39.793 C74.414,39.537 75.151,39.498 75.850,39.640 C77.907,40.326 79.584,41.897 78.801,45.106 ZM53.758,64.574 L58.991,64.574 L61.336,62.964 L53.758,62.964 L53.758,64.574 ZM61.975,39.583 C61.975,37.408 60.227,35.635 58.076,35.635 C55.924,35.635 54.176,37.408 54.176,39.583 L54.176,40.518 C54.176,42.693 55.924,44.466 58.076,44.466 C60.227,44.466 61.975,42.693 61.975,40.518 L61.975,39.583 ZM76.039,43.038 C75.762,42.561 75.186,42.352 74.673,42.536 L56.244,49.196 C54.755,49.736 53.758,51.169 53.758,52.768 L53.758,60.050 L62.397,60.050 L62.397,54.609 C62.397,54.125 62.628,53.678 63.018,53.408 L75.706,44.580 C76.197,44.235 76.344,43.560 76.039,43.038 Z"/>
</svg>