<svg xmlns="http://www.w3.org/2000/svg" width="80" height="80" viewBox="0 0 80 80">
  <defs>
    <style>
      .cls-1 {
        fill: #1d1e23;
        fill-rule: evenodd;
      }
    </style>
  </defs>
  <path id="Forma_1" data-name="Forma 1" class="cls-1" d="M7402.9,2843.08v-12.2a12.9,12.9,0,0,0-25.79,0v12.92a17.005,17.005,0,0,0-7.67,14.2,1.562,1.562,0,0,0,1.56,1.56h38.45a1.562,1.562,0,0,0,1.56-1.56v-1.05A15.912,15.912,0,0,0,7402.9,2843.08Zm-12.89-21.97a9.784,9.784,0,0,1,9.77,9.77v10.85a15.362,15.362,0,0,0-3.61-.67,7.773,7.773,0,0,0,1.6-4.73v-5.32a1.562,1.562,0,0,0-1.56-1.56H7383.7a1.562,1.562,0,0,0-1.56,1.56v5.32a7.711,7.711,0,0,0,1.72,4.88,16.8,16.8,0,0,0-3.62.97v-11.3h0A9.784,9.784,0,0,1,7390.01,2821.11Zm-0.05,19.91a4.69,4.69,0,0,1-4.69-4.69v-3.75h9.37v3.75A4.688,4.688,0,0,1,7389.96,2841.02Zm2.44,3.13-2.38,3.21-2.15-3.21h4.53Zm12.03,12.29v-2.58a1.565,1.565,0,0,0-3.13,0v2.58h-22.69v-2.58a1.565,1.565,0,0,0-3.13,0v2.58h-2.83a13.879,13.879,0,0,1,11.58-12.12l4.16,6.23v2.88a1.565,1.565,0,1,0,3.13,0v-2.84l4.73-6.39a12.828,12.828,0,0,1,11.63,12.24h-3.45Zm-41.86,23.03h-4.09a9.329,9.329,0,0,0,2.4-6.25V2858a1.564,1.564,0,0,0-1.57-1.56h-10.4a6.786,6.786,0,0,0-6.78,6.78v10a9.37,9.37,0,0,0,2.39,6.25h-2.49a11.049,11.049,0,0,0-11.04,11.04v5.94a1.562,1.562,0,0,0,1.56,1.56H7371a1.562,1.562,0,0,0,1.56-1.56v-6.99A10,10,0,0,0,7362.57,2879.47Zm-17.31-16.25a3.66,3.66,0,0,1,3.65-3.66h8.84v3.02a3.463,3.463,0,0,1-3.46,3.47h-9.03v-2.83Zm0,5.95h9.03a6.582,6.582,0,0,0,3.46-.98v5.03a6.245,6.245,0,1,1-12.49,0v-4.05Zm8.69,13.43-2.38,3.21-2.15-3.21h4.53Zm12.03,12.29v-3.98a1.565,1.565,0,0,0-3.13,0v3.98h-22.69v-3.98a1.565,1.565,0,0,0-3.13,0v3.98h-2.92v-4.38a7.923,7.923,0,0,1,7.92-7.91h3.63l4.28,6.4v2.88a1.565,1.565,0,1,0,3.13,0v-2.84l4.77-6.44h4.73a6.865,6.865,0,0,1,6.86,6.86v5.43h-3.45Zm20.07-7.99a1.559,1.559,0,0,0-1.1-.45,1.583,1.583,0,0,0-1.11.45,1.61,1.61,0,0,0-.46,1.11,1.569,1.569,0,0,0,.46,1.1,1.55,1.55,0,0,0,1.11.46,1.527,1.527,0,0,0,1.1-.46,1.569,1.569,0,0,0,.46-1.1A1.61,1.61,0,0,0,7386.05,2886.9Zm14.96-20.85a1.562,1.562,0,0,0-1.56,1.56v18.84h-8.6a1.56,1.56,0,0,0,0,3.12h10.16a1.562,1.562,0,0,0,1.56-1.56v-20.4A1.562,1.562,0,0,0,7401.01,2866.05Zm-38.86-39.16a1.527,1.527,0,0,0-1.1-.46,1.55,1.55,0,0,0-1.11.46,1.569,1.569,0,0,0-.46,1.1,1.61,1.61,0,0,0,.46,1.11,1.583,1.583,0,0,0,1.11.45,1.559,1.559,0,0,0,1.1-.45,1.61,1.61,0,0,0,.46-1.11A1.569,1.569,0,0,0,7362.15,2826.89Zm-8.19-.46h-12.97a1.562,1.562,0,0,0-1.56,1.56v22.09a1.56,1.56,0,0,0,3.12,0v-20.53h11.41A1.56,1.56,0,1,0,7353.96,2826.43Z" transform="translate(-7331 -2818)"/>
</svg>
