<svg 
 xmlns="http://www.w3.org/2000/svg"
 xmlns:xlink="http://www.w3.org/1999/xlink"
 width="2.875in" height="0.708in">
<path fill-rule="evenodd"  fill="rgb(29, 30, 35)"
 d="M203.416,28.730 L203.416,27.602 C203.416,27.116 203.173,26.872 202.688,26.872 L199.446,26.872 L199.446,40.910 L196.272,40.910 L196.272,26.872 L193.031,26.872 C192.545,26.872 192.303,27.116 192.303,27.602 L192.303,28.730 L189.657,28.730 L189.657,26.175 C189.657,25.445 189.822,24.919 190.153,24.599 C190.484,24.278 191.024,24.117 191.773,24.117 L203.945,24.117 C204.694,24.117 205.234,24.278 205.565,24.599 C205.896,24.919 206.061,25.445 206.061,26.175 L206.061,28.730 L203.416,28.730 ZM183.704,40.413 C183.372,40.081 183.207,39.539 183.207,38.786 L183.207,33.676 L174.741,33.676 L174.741,40.910 L171.533,40.910 L171.533,27.602 C171.533,27.116 171.290,26.872 170.805,26.872 L169.449,26.872 L169.449,24.117 L172.623,24.117 C173.374,24.117 173.914,24.284 174.245,24.615 C174.575,24.947 174.741,25.489 174.741,26.242 L174.741,30.987 L183.207,30.987 L183.207,24.117 L186.416,24.117 L186.416,37.426 C186.416,37.912 186.658,38.156 187.144,38.156 L188.466,38.156 L188.466,40.910 L185.324,40.910 C184.574,40.910 184.034,40.745 183.704,40.413 ZM163.397,40.413 C163.066,40.081 162.900,39.539 162.900,38.786 L162.900,30.822 C162.900,29.958 162.945,29.173 163.033,28.465 L162.966,28.465 C162.790,28.885 162.272,29.671 161.413,30.822 L154.203,40.910 L151.028,40.910 L151.028,27.602 C151.028,27.116 150.796,26.872 150.332,26.872 L149.010,26.872 L149.010,24.117 L151.954,24.117 C152.703,24.117 153.243,24.278 153.573,24.599 C153.905,24.919 154.070,25.456 154.070,26.208 L154.070,34.206 C154.070,35.313 154.026,36.087 153.937,36.530 L154.004,36.530 C154.225,36.087 154.743,35.313 155.559,34.206 L162.769,24.117 L165.944,24.117 L165.944,37.426 C165.944,37.912 166.175,38.156 166.638,38.156 L167.960,38.156 L167.960,40.910 L165.018,40.910 C164.267,40.910 163.727,40.745 163.397,40.413 ZM139.518,41.309 C138.834,41.309 138.189,41.215 137.583,41.027 C136.977,40.839 136.486,40.617 136.111,40.363 C135.737,40.109 135.411,39.849 135.136,39.583 C134.861,39.318 134.667,39.096 134.557,38.919 L134.392,38.620 L134.326,38.620 C134.370,39.019 134.392,39.505 134.392,40.081 L134.392,47.548 L131.184,47.548 L131.184,27.602 C131.184,27.116 130.941,26.872 130.456,26.872 L129.100,26.872 L129.100,24.117 L132.109,24.117 C133.476,24.117 134.160,24.682 134.160,25.810 L134.127,26.706 L134.193,26.706 C134.237,26.618 134.298,26.507 134.375,26.374 C134.452,26.242 134.645,26.004 134.954,25.661 C135.263,25.318 135.610,25.013 135.995,24.748 C136.382,24.483 136.911,24.245 137.583,24.034 C138.256,23.824 138.978,23.719 139.750,23.719 C141.999,23.719 143.790,24.527 145.124,26.142 C146.458,27.757 147.125,29.881 147.125,32.514 C147.125,35.147 146.414,37.271 144.992,38.886 C143.569,40.501 141.745,41.309 139.518,41.309 ZM142.544,28.183 C141.673,27.088 140.533,26.540 139.121,26.540 C137.754,26.540 136.607,27.044 135.682,28.050 C134.756,29.057 134.292,30.567 134.292,32.580 C134.292,34.196 134.717,35.595 135.566,36.778 C136.414,37.962 137.578,38.554 139.055,38.554 C140.422,38.554 141.563,38.012 142.479,36.928 C143.393,35.844 143.850,34.383 143.850,32.547 C143.850,30.733 143.415,29.278 142.544,28.183 ZM123.048,40.413 C122.717,40.081 122.551,39.539 122.551,38.786 L122.551,30.822 C122.551,29.958 122.596,29.173 122.684,28.465 L122.617,28.465 C122.441,28.885 121.923,29.671 121.064,30.822 L113.852,40.910 L110.678,40.910 L110.678,27.602 C110.678,27.116 110.446,26.872 109.983,26.872 L108.661,26.872 L108.661,24.117 L111.604,24.117 C112.354,24.117 112.894,24.278 113.224,24.599 C113.556,24.919 113.721,25.456 113.721,26.208 L113.721,34.206 C113.721,35.313 113.676,36.087 113.588,36.530 L113.655,36.530 C113.875,36.087 114.393,35.313 115.210,34.206 L122.420,24.117 L125.595,24.117 L125.595,37.426 C125.595,37.912 125.826,38.156 126.289,38.156 L127.611,38.156 L127.611,40.910 L124.668,40.910 C123.918,40.910 123.378,40.745 123.048,40.413 ZM99.500,25.644 C101.616,25.644 103.342,26.347 104.675,27.751 C106.010,29.157 106.676,31.032 106.676,33.377 C106.676,35.766 105.921,37.686 104.411,39.135 C102.900,40.584 100.966,41.309 98.606,41.309 C97.152,41.309 95.894,41.038 94.836,40.496 C93.778,39.954 92.945,39.201 92.339,38.239 C91.732,37.276 91.286,36.198 91.000,35.003 C90.713,33.808 90.569,32.481 90.569,31.021 C90.569,28.122 90.977,25.832 91.793,24.151 C92.610,22.469 94.097,21.153 96.258,20.201 L99.930,18.575 C100.700,18.243 101.214,17.961 101.467,17.729 C101.721,17.496 101.847,17.192 101.847,16.816 L101.847,16.020 L104.956,16.020 L104.956,17.480 C104.956,18.498 104.709,19.233 104.212,19.687 C103.716,20.140 102.818,20.622 101.517,21.130 L97.581,22.823 C95.024,23.929 93.712,25.910 93.645,28.764 L93.679,28.764 C95.024,26.684 96.964,25.644 99.500,25.644 ZM95.299,37.160 C96.203,38.090 97.328,38.554 98.673,38.554 C100.017,38.554 101.136,38.095 102.029,37.177 C102.923,36.259 103.369,35.014 103.369,33.444 C103.369,31.850 102.928,30.600 102.046,29.693 C101.164,28.786 100.061,28.332 98.739,28.332 C97.328,28.332 96.175,28.808 95.282,29.759 C94.390,30.711 93.943,31.916 93.943,33.377 C93.943,34.970 94.395,36.231 95.299,37.160 ZM83.558,38.986 L83.591,37.990 L83.525,37.990 C83.547,37.990 83.497,38.106 83.376,38.339 C83.255,38.571 83.056,38.847 82.781,39.168 C82.505,39.489 82.168,39.810 81.772,40.131 C81.375,40.451 80.857,40.728 80.218,40.960 C79.578,41.192 78.883,41.309 78.134,41.309 C76.591,41.309 75.268,40.861 74.165,39.965 C73.063,39.069 72.511,37.857 72.511,36.330 C72.511,32.414 75.885,30.456 82.632,30.456 L83.359,30.456 L83.359,30.224 C83.359,28.808 83.067,27.796 82.483,27.187 C81.899,26.579 80.956,26.275 79.655,26.275 C79.039,26.275 78.426,26.369 77.820,26.557 C77.213,26.745 76.911,27.082 76.911,27.569 L76.911,28.531 L73.867,28.531 L73.867,26.839 C73.867,26.219 74.089,25.683 74.529,25.229 C74.971,24.776 75.527,24.450 76.200,24.250 C76.873,24.051 77.484,23.913 78.035,23.835 C78.586,23.758 79.105,23.719 79.589,23.719 C82.168,23.719 83.977,24.294 85.013,25.445 C86.050,26.595 86.568,28.211 86.568,30.290 L86.568,37.426 C86.568,37.912 86.810,38.156 87.296,38.156 L88.652,38.156 L88.652,40.910 L85.608,40.910 C84.241,40.910 83.558,40.269 83.558,38.986 ZM83.359,32.780 L82.500,32.780 C77.980,32.780 75.720,33.864 75.720,36.032 C75.720,36.762 75.995,37.398 76.547,37.940 C77.098,38.482 77.869,38.753 78.862,38.753 C80.184,38.753 81.265,38.200 82.103,37.094 C82.941,35.988 83.359,34.759 83.359,33.410 L83.359,32.780 ZM65.500,40.413 C65.170,40.081 65.005,39.539 65.005,38.786 L65.005,21.064 C65.005,20.577 64.762,20.334 64.277,20.334 L57.794,20.334 L57.794,22.956 C57.794,28.864 57.154,33.316 55.876,36.314 C54.597,39.312 52.414,40.900 49.327,41.076 L49.327,38.056 C51.246,37.791 52.612,36.430 53.429,33.974 C54.244,31.519 54.652,27.834 54.652,22.922 L54.652,20.334 L52.469,20.334 L52.469,17.480 L66.194,17.480 C66.945,17.480 67.484,17.646 67.815,17.978 C68.146,18.309 68.311,18.851 68.311,19.604 L68.311,37.326 C68.311,37.813 68.554,38.056 69.039,38.056 L70.461,38.056 L70.461,40.910 L67.120,40.910 C66.371,40.910 65.830,40.745 65.500,40.413 ZM27.060,13.776 C26.490,14.347 25.680,14.529 24.949,14.339 L23.274,16.020 L28.816,21.580 C29.246,22.012 29.246,22.713 28.816,23.145 L25.075,26.899 C28.108,29.949 31.147,32.992 34.206,36.003 C34.636,36.435 34.636,37.135 34.206,37.567 C34.049,37.724 33.858,37.824 33.657,37.867 L29.186,39.068 C29.150,39.080 29.114,39.090 29.077,39.098 L6.714,45.110 C6.128,45.268 5.524,44.918 5.367,44.329 C5.315,44.131 5.318,43.931 5.370,43.747 L11.373,21.266 C11.529,20.676 12.134,20.326 12.721,20.483 C12.915,20.536 13.083,20.636 13.216,20.769 L26.717,34.317 C27.147,34.749 27.147,35.450 26.717,35.881 C26.562,36.038 26.371,36.137 26.170,36.181 L21.822,37.349 C21.786,37.361 21.750,37.371 21.713,37.379 L11.751,40.058 C11.163,40.215 10.559,39.865 10.403,39.276 C10.350,39.078 10.354,38.878 10.405,38.694 L13.085,28.656 C13.243,28.066 13.846,27.716 14.434,27.873 C14.628,27.926 14.795,28.026 14.928,28.160 L18.595,31.837 L17.035,33.401 L14.719,31.077 L13.022,37.428 L23.810,34.528 L13.006,23.687 L7.987,42.481 L31.297,36.213 L11.174,16.021 L2.690,47.797 L36.200,38.786 L36.768,40.921 L1.417,50.427 C0.830,50.584 0.226,50.234 0.069,49.644 C0.017,49.447 0.021,49.247 0.072,49.063 L9.541,13.600 C9.698,13.011 10.302,12.661 10.889,12.818 C11.083,12.870 11.252,12.971 11.383,13.104 C15.432,17.165 19.469,21.255 23.516,25.333 L26.477,22.363 L20.936,16.802 C20.506,16.370 20.506,15.670 20.936,15.238 L23.390,12.775 C23.200,12.041 23.381,11.228 23.951,10.657 L33.467,1.108 C34.322,0.251 35.720,0.251 36.575,1.108 L36.575,1.109 C37.430,1.966 37.429,3.370 36.575,4.228 L27.060,13.776 Z"/>
</svg>