<svg 
 xmlns="http://www.w3.org/2000/svg"
 xmlns:xlink="http://www.w3.org/1999/xlink"
 width="0.715in" height="0.715in">
<path fill-rule="evenodd"  stroke="rgb(255, 255, 255)" stroke-width="1px" stroke-linecap="butt" stroke-linejoin="miter" fill="rgb(29, 30, 35)"
 d="M25.499,0.500 C39.307,0.500 50.499,11.693 50.499,25.500 C50.499,39.307 39.307,50.500 25.499,50.500 C11.692,50.500 0.499,39.307 0.499,25.500 C0.499,11.693 11.692,0.500 25.499,0.500 Z"/>
<path fill-rule="evenodd"  fill="rgb(255, 255, 255)"
 d="M33.080,28.245 C32.255,29.072 31.263,29.669 30.160,30.087 C29.118,30.481 27.976,30.679 26.846,30.811 C27.016,30.992 27.097,31.081 27.204,31.186 C28.738,32.690 30.279,34.188 31.809,35.696 C32.329,36.211 32.438,36.848 32.152,37.446 C31.838,38.100 31.136,38.530 30.447,38.484 C30.011,38.454 29.671,38.242 29.369,37.945 C28.211,36.808 27.031,35.692 25.896,34.534 C25.566,34.197 25.408,34.261 25.116,34.553 C23.952,35.723 22.768,36.876 21.577,38.021 C21.042,38.536 20.405,38.628 19.785,38.334 C19.127,38.022 18.706,37.366 18.739,36.706 C18.761,36.260 18.986,35.919 19.301,35.613 C20.818,34.134 22.333,32.651 23.848,31.169 C23.948,31.070 24.042,30.966 24.188,30.814 C22.122,30.603 20.259,30.107 18.665,28.890 C18.467,28.738 18.263,28.593 18.082,28.423 C17.384,27.769 17.313,27.020 17.866,26.248 C18.338,25.588 19.131,25.411 19.956,25.790 C20.115,25.864 20.268,25.956 20.413,26.054 C23.386,28.047 27.468,28.101 30.451,26.144 C30.746,25.923 31.063,25.742 31.429,25.650 C32.140,25.472 32.804,25.727 33.186,26.335 C33.623,27.029 33.618,27.706 33.080,28.245 ZM25.446,25.660 C21.761,25.648 18.739,22.667 18.760,19.066 C18.782,15.424 21.805,12.490 25.527,12.500 C29.257,12.510 32.249,15.487 32.230,19.166 C32.211,22.760 29.169,25.673 25.446,25.660 ZM25.500,15.861 C23.656,15.859 22.183,17.309 22.197,19.113 C22.210,20.895 23.683,22.308 25.517,22.301 C27.346,22.295 28.802,20.862 28.795,19.074 C28.789,17.286 27.329,15.863 25.500,15.861 Z"/>
</svg>