<svg 
 xmlns="http://www.w3.org/2000/svg"
 xmlns:xlink="http://www.w3.org/1999/xlink"
 width="0.715in" height="0.715in">
<path fill-rule="evenodd"  stroke="rgb(255, 255, 255)" stroke-width="1px" stroke-linecap="butt" stroke-linejoin="miter" fill="rgb(29, 30, 35)"
 d="M25.499,0.500 C39.306,0.500 50.499,11.693 50.499,25.500 C50.499,39.307 39.306,50.500 25.499,50.500 C11.692,50.500 0.500,39.307 0.500,25.500 C0.500,11.693 11.692,0.500 25.499,0.500 Z"/>
<path fill-rule="evenodd"  fill="rgb(255, 255, 255)"
 d="M38.414,33.399 C38.266,33.418 38.115,33.440 37.966,33.441 C36.493,33.444 35.021,33.440 33.551,33.445 C33.345,33.447 33.172,33.372 33.021,33.252 C32.714,33.006 32.397,32.765 32.113,32.490 C31.377,31.774 30.659,31.038 29.928,30.317 C29.701,30.091 29.457,29.884 29.218,29.670 C29.093,29.555 28.938,29.531 28.777,29.533 C28.562,29.538 28.384,29.634 28.299,29.829 C28.221,30.006 28.157,30.199 28.137,30.387 C28.100,30.729 28.099,31.074 28.092,31.417 C28.084,31.800 28.072,32.185 27.963,32.558 C27.914,32.723 27.844,32.890 27.756,33.039 C27.605,33.295 27.365,33.434 27.060,33.440 C25.776,33.469 24.489,33.488 23.206,33.405 C22.969,33.389 22.750,33.314 22.538,33.212 C21.340,32.635 20.289,31.870 19.374,30.915 C18.262,29.755 17.252,28.510 16.242,27.266 C14.883,25.588 13.708,23.792 12.651,21.921 C12.265,21.238 11.892,20.546 11.615,19.812 C11.479,19.449 11.479,19.086 11.581,18.721 C11.611,18.612 11.663,18.506 11.725,18.411 C11.811,18.272 11.946,18.195 12.118,18.191 C12.180,18.190 12.243,18.188 12.303,18.188 C13.638,18.188 14.972,18.193 16.306,18.184 C16.570,18.182 16.772,18.269 16.950,18.444 C17.278,18.766 17.533,19.142 17.763,19.533 C18.014,19.958 18.264,20.387 18.486,20.828 C18.970,21.799 19.565,22.705 20.196,23.587 C20.502,24.017 20.836,24.431 21.154,24.852 C21.302,25.048 21.509,25.122 21.745,25.129 C21.975,25.137 22.069,25.045 22.078,24.819 C22.081,24.765 22.081,24.711 22.081,24.657 C22.081,23.180 22.081,21.705 22.078,20.229 C22.078,20.115 22.078,19.999 22.067,19.885 C22.040,19.622 21.898,19.468 21.631,19.417 C21.511,19.394 21.388,19.384 21.265,19.368 C20.890,19.319 20.735,19.164 20.696,18.794 C20.637,18.236 20.910,17.801 21.444,17.605 C21.673,17.522 21.911,17.503 22.154,17.504 C23.343,17.506 24.533,17.504 25.722,17.505 C25.963,17.505 26.205,17.493 26.444,17.514 C26.696,17.538 26.949,17.570 27.192,17.640 C27.712,17.787 28.014,18.134 28.073,18.668 C28.088,18.796 28.092,18.924 28.092,19.052 C28.093,19.948 28.093,20.844 28.093,21.740 C28.093,22.690 28.093,23.640 28.096,24.590 C28.096,24.683 28.105,24.780 28.130,24.869 C28.213,25.157 28.535,25.252 28.804,25.071 C29.596,24.536 30.117,23.790 30.517,22.961 C30.886,22.195 31.205,21.405 31.553,20.628 C31.831,20.013 32.116,19.400 32.406,18.790 C32.478,18.639 32.582,18.501 32.679,18.363 C32.768,18.238 32.885,18.184 33.048,18.184 C34.775,18.189 36.500,18.188 38.225,18.186 C38.648,18.186 38.984,18.355 39.247,18.669 C39.340,18.781 39.378,18.912 39.403,19.057 C39.505,19.724 39.271,20.304 38.947,20.864 C38.638,21.393 38.273,21.881 37.874,22.344 C37.048,23.302 36.238,24.271 35.530,25.318 C35.347,25.587 35.192,25.873 35.025,26.152 C34.902,26.354 34.918,26.550 35.073,26.731 C35.384,27.099 35.687,27.477 36.015,27.828 C36.794,28.666 37.592,29.482 38.376,30.315 C38.628,30.582 38.855,30.871 39.086,31.155 C39.164,31.248 39.221,31.358 39.296,31.452 C39.884,32.193 39.152,33.305 38.414,33.399 Z"/>
</svg>